<svg width="70" height="70" viewBox="0 0 70 70" fill="none" xmlns="http://www.w3.org/2000/svg">
<path fill-rule="evenodd" clip-rule="evenodd" d="M21.7729 3.10913C25.1942 2.95163 26.285 2.91663 35 2.91663C43.715 2.91663 44.8058 2.95454 48.2242 3.10913C51.6425 3.26371 53.9758 3.80913 56.0175 4.59954C58.1554 5.40746 60.095 6.67038 61.6992 8.30371C63.3325 9.90496 64.5925 11.8416 65.3975 13.9825C66.1908 16.0241 66.7333 18.3575 66.8908 21.77C67.0483 25.197 67.0833 26.2879 67.0833 35C67.0833 43.715 67.0454 44.8058 66.8908 48.227C66.7362 51.6395 66.1908 53.9729 65.3975 56.0145C64.5925 58.1556 63.3304 60.0955 61.6992 61.6991C60.095 63.3325 58.1554 64.5925 56.0175 65.3975C53.9758 66.1908 51.6425 66.7333 48.23 66.8908C44.8058 67.0483 43.715 67.0833 35 67.0833C26.285 67.0833 25.1942 67.0454 21.7729 66.8908C18.3604 66.7362 16.0271 66.1908 13.9854 65.3975C11.8443 64.5924 9.90447 63.3303 8.30082 61.6991C6.6686 60.0969 5.40549 58.158 4.59957 56.0175C3.80916 53.9758 3.26666 51.6425 3.10916 48.23C2.95166 44.8029 2.91666 43.712 2.91666 35C2.91666 26.285 2.95457 25.1941 3.10916 21.7758C3.26374 18.3575 3.80916 16.0241 4.59957 13.9825C5.40668 11.8419 6.67075 9.90296 8.30374 8.30079C9.90511 6.66892 11.843 5.40584 13.9825 4.59954C16.0242 3.80913 18.3575 3.26663 21.77 3.10913H21.7729ZM47.9646 8.88413C44.5812 8.72954 43.5662 8.69746 35 8.69746C26.4337 8.69746 25.4187 8.72954 22.0354 8.88413C18.9058 9.02704 17.2083 9.54913 16.0767 9.98954C14.5804 10.5729 13.51 11.2641 12.3871 12.387C11.3226 13.4226 10.5034 14.6833 9.98957 16.0766C9.54916 17.2083 9.02707 18.9058 8.88416 22.0354C8.72957 25.4187 8.69749 26.4337 8.69749 35C8.69749 43.5662 8.72957 44.5812 8.88416 47.9645C9.02707 51.0941 9.54916 52.7916 9.98957 53.9233C10.5029 55.3145 11.3225 56.5775 12.3871 57.6129C13.4225 58.6775 14.6854 59.497 16.0767 60.0104C17.2083 60.4508 18.9058 60.9729 22.0354 61.1158C25.4187 61.2704 26.4308 61.3025 35 61.3025C43.5692 61.3025 44.5812 61.2704 47.9646 61.1158C51.0942 60.9729 52.7917 60.4508 53.9233 60.0104C55.4196 59.427 56.49 58.7358 57.6129 57.6129C58.6775 56.5775 59.4971 55.3145 60.0104 53.9233C60.4508 52.7916 60.9729 51.0941 61.1158 47.9645C61.2704 44.5812 61.3025 43.5662 61.3025 35C61.3025 26.4337 61.2704 25.4187 61.1158 22.0354C60.9729 18.9058 60.4508 17.2083 60.0104 16.0766C59.4271 14.5804 58.7358 13.51 57.6129 12.387C56.5773 11.3227 55.3166 10.5035 53.9233 9.98954C52.7917 9.54913 51.0942 9.02704 47.9646 8.88413ZM30.9021 44.8904C33.1907 45.843 35.739 45.9716 38.1119 45.2541C40.4847 44.5367 42.5349 43.0176 43.9122 40.9565C45.2895 38.8954 45.9085 36.42 45.6635 33.9532C45.4184 31.4864 44.3246 29.1811 42.5687 27.4312C41.4494 26.3126 40.096 25.4561 38.606 24.9233C37.1159 24.3905 35.5262 24.1948 33.9514 24.3501C32.3766 24.5054 30.8559 25.008 29.4986 25.8216C28.1413 26.6352 26.9813 27.7396 26.1021 29.0554C25.2229 30.3711 24.6464 31.8654 24.414 33.4307C24.1816 34.996 24.2992 36.5933 24.7582 38.1077C25.2173 39.6221 26.0064 41.0159 27.0688 42.1887C28.1311 43.3616 29.4403 44.2842 30.9021 44.8904ZM23.3392 23.3391C24.8705 21.8078 26.6884 20.5931 28.6892 19.7643C30.69 18.9356 32.8344 18.509 35 18.509C37.1656 18.509 39.31 18.9356 41.3108 19.7643C43.3116 20.5931 45.1295 21.8078 46.6608 23.3391C48.1921 24.8704 49.4069 26.6884 50.2356 28.6892C51.0643 30.6899 51.4909 32.8343 51.4909 35C51.4909 37.1656 51.0643 39.31 50.2356 41.3108C49.4069 43.3115 48.1921 45.1295 46.6608 46.6608C43.5682 49.7534 39.3736 51.4909 35 51.4909C30.6263 51.4909 26.4318 49.7534 23.3392 46.6608C20.2465 43.5681 18.5091 39.3736 18.5091 35C18.5091 30.6263 20.2465 26.4318 23.3392 23.3391ZM55.1483 20.965C55.5278 20.607 55.8316 20.1765 56.0417 19.699C56.2518 19.2216 56.364 18.7068 56.3716 18.1852C56.3792 17.6636 56.2821 17.1457 56.086 16.6623C55.8899 16.1789 55.5987 15.7398 55.2299 15.3709C54.861 15.002 54.4219 14.7109 53.9385 14.5148C53.4551 14.3187 52.9372 14.2216 52.4156 14.2292C51.894 14.2368 51.3792 14.3489 50.9017 14.5591C50.4243 14.7692 49.9938 15.073 49.6358 15.4525C48.9396 16.1905 48.5585 17.1707 48.5733 18.1852C48.5881 19.1996 48.9976 20.1684 49.715 20.8857C50.4324 21.6031 51.4012 22.0127 52.4156 22.0275C53.43 22.0423 54.4103 21.6611 55.1483 20.965Z" fill="white"/>
</svg>
