<svg width="70" height="70" viewBox="0 0 70 70" fill="none" xmlns="http://www.w3.org/2000/svg">
<g clip-path="url(#clip0_6_112)">
<path d="M12.7816 0C5.70115 0 0 5.70115 0 12.7816V57.2185C0 64.2989 5.70115 70.0001 12.7816 70.0001H36.866V42.6344H29.6297V32.7819H36.866V24.3644C36.866 17.7512 41.1415 11.6791 50.9907 11.6791C54.9784 11.6791 57.9272 12.0619 57.9272 12.0619L57.6953 21.2626C57.6953 21.2626 54.6879 21.2341 51.4062 21.2341C47.8545 21.2341 47.285 22.8706 47.285 25.5873V32.782H57.9775L57.5116 42.6345H47.285V70.0001H57.2184C64.2989 70.0001 70 64.299 70 57.2186V12.7816C70 5.70122 64.2989 7e-05 57.2184 7e-05H12.7815L12.7816 0Z" fill="white"/>
</g>
<defs>
<clipPath id="clip0_6_112">
<rect width="70" height="70" fill="white"/>
</clipPath>
</defs>
</svg>
