<svg width="200" height="200" viewBox="0 0 200 200" fill="none" xmlns="http://www.w3.org/2000/svg">
<path d="M100 148.306C90.0579 148.295 80.5264 144.34 73.4963 137.31C66.4662 130.28 62.5116 120.748 62.5 110.806V70.45L100 51.7L137.5 70.45V110.8C137.488 120.742 133.534 130.274 126.504 137.304C119.474 144.334 109.942 148.288 100 148.3V148.306ZM75 78.1687V110.806C75 117.437 77.6339 123.795 82.3223 128.484C87.0107 133.172 93.3696 135.806 100 135.806C106.63 135.806 112.989 133.172 117.678 128.484C122.366 123.795 125 117.437 125 110.806V78.1687L100 65.6687L75 78.1687Z" fill="black"/>
<path d="M100 193.75C98.8932 193.751 97.8061 193.458 96.85 192.9L21.85 149.15C20.9064 148.599 20.1236 147.811 19.5797 146.864C19.0357 145.916 18.7497 144.843 18.75 143.75V56.25C18.7497 55.1575 19.0357 54.084 19.5797 53.1365C20.1236 52.189 20.9064 51.4007 21.85 50.85L96.85 7.10002C97.806 6.54214 98.8931 6.24817 100 6.24817C101.107 6.24817 102.194 6.54214 103.15 7.10002L178.15 50.85L171.85 61.65L100 19.7375L31.25 59.8375V140.163L100 180.269L168.75 140.163V93.75H181.25V143.75C181.25 144.843 180.964 145.916 180.42 146.864C179.876 147.811 179.094 148.599 178.15 149.15L103.15 192.9C102.194 193.458 101.107 193.751 100 193.75Z" fill="black"/>
</svg>
