<svg width="98" height="98" viewBox="0 0 98 98" fill="none" xmlns="http://www.w3.org/2000/svg">
<g clip-path="url(#clip0_128_387)">
<path d="M17.8942 0C7.98161 0 0 7.98161 0 17.8942V80.1059C0 90.0185 7.98161 98.0001 17.8942 98.0001H51.6124V59.6882H41.4816V45.8947H51.6124V34.1102C51.6124 24.8516 57.5981 16.3507 71.3869 16.3507C76.9698 16.3507 81.0981 16.8867 81.0981 16.8867L80.7735 29.7676C80.7735 29.7676 76.5631 29.7278 71.9688 29.7278C66.9963 29.7278 66.199 32.0188 66.199 35.8222V45.8948H81.1685L80.5162 59.6883H66.199V98.0002H80.1058C90.0184 98.0002 98 90.0186 98 80.106V17.8943C98 7.98171 90.0184 9.8e-05 80.1058 9.8e-05H17.8941L17.8942 0Z" fill="#003061"/>
</g>
<defs>
<clipPath id="clip0_128_387">
<rect width="98" height="98" fill="white"/>
</clipPath>
</defs>
</svg>
