<svg width="70" height="70" viewBox="0 0 70 70" fill="none" xmlns="http://www.w3.org/2000/svg">
<g clip-path="url(#clip0_6_105)">
<path d="M62.2222 11.6666H7.77777C6.74638 11.6666 5.75722 12.0763 5.02791 12.8057C4.29861 13.535 3.88889 14.5241 3.88889 15.5555V54.4444C3.88889 55.4758 4.29861 56.465 5.02791 57.1943C5.75722 57.9236 6.74638 58.3333 7.77777 58.3333H62.2222C63.2536 58.3333 64.2428 57.9236 64.9721 57.1943C65.7014 56.465 66.1111 55.4758 66.1111 54.4444V15.5555C66.1111 14.5241 65.7014 13.535 64.9721 12.8057C64.2428 12.0763 63.2536 11.6666 62.2222 11.6666ZM59.2278 54.4444H11.0056L24.6167 40.3666L21.8167 37.6639L7.77777 52.1889V18.5111L31.9472 42.5638C32.6758 43.2882 33.6615 43.6947 34.6889 43.6947C35.7163 43.6947 36.7019 43.2882 37.4306 42.5638L62.2222 17.9083V51.9361L47.9111 37.625L45.1694 40.3666L59.2278 54.4444ZM10.325 15.5555H59.0722L34.6889 39.8027L10.325 15.5555Z" fill="white"/>
</g>
<defs>
<clipPath id="clip0_6_105">
<rect width="70" height="70" fill="white"/>
</clipPath>
</defs>
</svg>
