<svg width="297" height="297" viewBox="0 0 297 297" fill="none" xmlns="http://www.w3.org/2000/svg">
<path d="M247.5 99H178.051L191.949 57.3334C194.448 49.8094 193.186 41.4686 188.546 35.0336C183.905 28.5986 176.381 24.75 168.449 24.75H148.5C144.825 24.75 141.347 26.3835 138.984 29.205L80.8211 99H49.5C35.8504 99 24.75 110.1 24.75 123.75V235.125C24.75 248.775 35.8504 259.875 49.5 259.875H214.174C219.209 259.858 224.121 258.314 228.26 255.446C232.398 252.578 235.569 248.521 237.353 243.812L271.47 152.844C271.988 151.454 272.252 149.983 272.25 148.5V123.75C272.25 110.1 261.15 99 247.5 99ZM49.5 123.75H74.25V235.125H49.5V123.75ZM247.5 146.26L214.174 235.125H99V115.855L154.292 49.5H168.473L149.144 107.452C148.516 109.312 148.341 111.295 148.633 113.237C148.925 115.178 149.675 117.022 150.822 118.615C151.969 120.208 153.479 121.505 155.228 122.398C156.976 123.291 158.912 123.755 160.875 123.75H247.5V146.26Z" fill="#EABD1B"/>
</svg>
