<svg width="200" height="200" viewBox="0 0 200 200" fill="none" xmlns="http://www.w3.org/2000/svg">
<path d="M158.333 33.3334H41.6667C37.2464 33.3334 33.0072 35.0893 29.8816 38.2149C26.7559 41.3405 25 45.5798 25 50V150C25 154.42 26.7559 158.66 29.8816 161.785C33.0072 164.911 37.2464 166.667 41.6667 166.667H158.333C167.5 166.667 175 159.167 175 150V50C175 40.8334 167.5 33.3334 158.333 33.3334ZM91.6667 125H79.1667V108.333H62.5V125H50V75H62.5V95.8334H79.1667V75H91.6667V125ZM150 116.667C150 121.25 146.25 125 141.667 125H135.417V137.5H122.917V125H116.667C112.083 125 108.333 121.25 108.333 116.667V83.3334C108.333 78.75 112.083 75 116.667 75H141.667C146.25 75 150 78.75 150 83.3334V116.667ZM120.833 112.5H137.5V87.5H120.833V112.5Z" fill="black"/>
</svg>
