<svg width="98" height="98" viewBox="0 0 98 98" fill="none" xmlns="http://www.w3.org/2000/svg">
<path fill-rule="evenodd" clip-rule="evenodd" d="M30.4822 4.35284C35.272 4.13234 36.7992 4.08334 49.0002 4.08334C61.2012 4.08334 62.7283 4.13643 67.514 4.35284C72.2997 4.56926 75.5663 5.33284 78.4247 6.43943C81.4177 7.57051 84.1332 9.33859 86.379 11.6253C88.6657 13.867 90.4297 16.5783 91.5567 19.5755C92.6673 22.4338 93.4268 25.7005 93.6473 30.478C93.8678 35.2759 93.9168 36.8031 93.9168 49C93.9168 61.201 93.8637 62.7282 93.6473 67.5179C93.4309 72.2954 92.6673 75.5621 91.5567 78.4204C90.4296 81.418 88.6627 84.1338 86.379 86.3788C84.1332 88.6655 81.4177 90.4295 78.4247 91.5565C75.5663 92.6672 72.2997 93.4267 67.5222 93.6472C62.7283 93.8677 61.2012 93.9167 49.0002 93.9167C36.7992 93.9167 35.272 93.8636 30.4822 93.6472C25.7047 93.4308 22.4381 92.6672 19.5797 91.5565C16.5823 90.4294 13.8664 88.6625 11.6213 86.3788C9.33621 84.1357 7.56786 81.4212 6.43958 78.4245C5.333 75.5662 4.5735 72.2995 4.353 67.522C4.1325 62.7241 4.0835 61.1969 4.0835 49C4.0835 36.799 4.13658 35.2718 4.353 30.4862C4.56941 25.7005 5.333 22.4338 6.43958 19.5755C7.56953 16.5787 9.33923 13.8642 11.6254 11.6212C13.8673 9.33656 16.5804 7.56824 19.5757 6.43943C22.434 5.33284 25.7007 4.57334 30.4782 4.35284H30.4822ZM67.1506 12.4378C62.4139 12.2214 60.9929 12.1765 49.0002 12.1765C37.0074 12.1765 35.5864 12.2214 30.8497 12.4378C26.4683 12.6379 24.0918 13.3688 22.5075 13.9854C20.4127 14.8021 18.9142 15.7698 17.3421 17.3419C15.8518 18.7917 14.705 20.5567 13.9856 22.5073C13.369 24.0917 12.6381 26.4682 12.438 30.8496C12.2216 35.5863 12.1767 37.0073 12.1767 49C12.1767 60.9928 12.2216 62.4138 12.438 67.1504C12.6381 71.5318 13.369 73.9083 13.9856 75.4927C14.7042 77.4404 15.8517 79.2085 17.3421 80.6581C18.7917 82.1485 20.5597 83.2959 22.5075 84.0146C24.0918 84.6312 26.4683 85.3621 30.8497 85.5622C35.5864 85.7786 37.0033 85.8235 49.0002 85.8235C60.997 85.8235 62.4139 85.7786 67.1506 85.5622C71.532 85.3621 73.9085 84.6312 75.4928 84.0146C77.5876 83.1979 79.0862 82.2302 80.6582 80.6581C82.1487 79.2085 83.2961 77.4404 84.0147 75.4927C84.6313 73.9083 85.3622 71.5318 85.5623 67.1504C85.7787 62.4138 85.8237 60.9928 85.8237 49C85.8237 37.0073 85.7787 35.5863 85.5623 30.8496C85.3622 26.4682 84.6313 24.0917 84.0147 22.5073C83.1981 20.4126 82.2303 18.914 80.6582 17.3419C79.2084 15.8518 77.4434 14.705 75.4928 13.9854C73.9085 13.3688 71.532 12.6379 67.1506 12.4378ZM43.2631 62.8466C46.4671 64.1803 50.0348 64.3603 53.3568 63.3559C56.6788 62.3514 59.549 60.2248 61.4772 57.3392C63.4055 54.4536 64.272 50.9881 63.929 47.5345C63.586 44.081 62.0546 40.8536 59.5964 38.4038C58.0294 36.8377 56.1346 35.6386 54.0485 34.8927C51.9624 34.1468 49.7369 33.8727 47.5322 34.0902C45.3275 34.3076 43.1984 35.0112 41.2982 36.1503C39.398 37.2893 37.774 38.8355 36.5431 40.6776C35.3123 42.5196 34.5051 44.6116 34.1798 46.803C33.8544 48.9944 34.019 51.2307 34.6617 53.3509C35.3044 55.471 36.4091 57.4223 37.8964 59.0643C39.3837 60.7062 41.2166 61.998 43.2631 62.8466ZM32.675 32.6748C34.8188 30.531 37.364 28.8304 40.165 27.6702C42.9661 26.5099 45.9683 25.9127 49.0002 25.9127C52.032 25.9127 55.0342 26.5099 57.8353 27.6701C60.6364 28.8304 63.1815 30.531 65.3253 32.6748C67.4692 34.8187 69.1698 37.3638 70.33 40.1649C71.4903 42.966 72.0874 45.9681 72.0874 49C72.0874 52.0319 71.4903 55.034 70.33 57.8351C69.1698 60.6362 67.4692 63.1813 65.3253 65.3252C60.9956 69.6549 55.1233 72.0873 49.0002 72.0873C42.877 72.0873 37.0047 69.6549 32.675 65.3252C28.3453 60.9955 25.9129 55.1231 25.9129 49C25.9129 42.8769 28.3453 37.0045 32.675 32.6748ZM77.2078 29.351C77.7391 28.8499 78.1644 28.2472 78.4586 27.5787C78.7527 26.9103 78.9098 26.1896 78.9204 25.4593C78.9311 24.729 78.7951 24.0041 78.5205 23.3273C78.246 22.6506 77.8384 22.0358 77.322 21.5193C76.8056 21.0029 76.1908 20.5954 75.514 20.3208C74.8373 20.0462 74.1123 19.9102 73.382 19.9209C72.6518 19.9315 71.9311 20.0886 71.2626 20.3828C70.5941 20.6769 69.9915 21.1022 69.4903 21.6335C68.5157 22.6667 67.9821 24.0391 68.0028 25.4593C68.0235 26.8795 68.5969 28.2358 69.6012 29.2401C70.6056 30.2445 71.9618 30.8179 73.382 30.8386C74.8022 30.8593 76.1746 30.3257 77.2078 29.351Z" fill="#003061"/>
</svg>
