<svg width="98" height="98" viewBox="0 0 98 98" fill="none" xmlns="http://www.w3.org/2000/svg">
<g clip-path="url(#clip0_128_394)">
<path fill-rule="evenodd" clip-rule="evenodd" d="M71.1113 58.7266C69.8944 58.1182 63.9287 55.1864 62.818 54.778C61.7073 54.3738 60.8988 54.1737 60.0862 55.3905C59.2777 56.5992 56.9543 59.335 56.2479 60.1436C55.5374 60.9561 54.831 61.0541 53.6182 60.4498C52.4055 59.8373 48.4937 58.5592 43.8591 54.4269C40.2535 51.2092 37.8158 47.2361 37.1093 46.0193C36.4029 44.8066 37.0317 44.1491 37.6402 43.5448C38.1873 43.0017 38.8529 42.1279 39.4613 41.4215C40.0697 40.711 40.2698 40.2046 40.6741 39.3921C41.0824 38.5836 40.8782 37.8771 40.572 37.2687C40.2698 36.6603 37.8443 30.6864 36.8317 28.2568C35.8476 25.8926 34.8472 26.2151 34.104 26.1743C33.3935 26.1416 32.585 26.1335 31.7765 26.1335C30.968 26.1335 29.6532 26.4356 28.5425 27.6525C27.4277 28.8652 24.2958 31.8011 24.2958 37.7751C24.2958 43.7449 28.6405 49.5146 29.2489 50.3272C29.8573 51.1357 37.8035 63.3939 49.9759 68.6491C52.8751 69.8986 55.1332 70.6459 56.8931 71.2012C59.8004 72.1281 62.4464 71.9975 64.5371 71.683C66.8646 71.336 71.7156 68.7471 72.7282 65.9133C73.7368 63.0795 73.7368 60.6499 73.4347 60.1436C73.1325 59.6372 72.324 59.335 71.1072 58.7266H71.1113ZM48.9714 88.9555H48.9551C41.7253 88.9569 34.6282 87.0134 28.4077 83.3287L26.9377 82.4549L11.6579 86.4647L15.7372 71.5687L14.7776 70.0415C10.7356 63.6076 8.59662 56.1614 8.60767 48.5632C8.61583 26.3091 26.7213 8.20355 48.9877 8.20355C59.7677 8.20355 69.9026 12.4094 77.5221 20.0371C81.2803 23.7798 84.259 28.2305 86.286 33.1319C88.313 38.0332 89.348 43.2879 89.3311 48.5918C89.3229 70.846 71.2174 88.9555 48.9714 88.9555ZM83.3204 14.2428C78.8214 9.71407 73.4683 6.12325 67.5714 3.6784C61.6744 1.23356 55.3509 -0.0166752 48.9673 0.000136807C22.2052 0.000136807 0.4165 21.7847 0.408333 48.5591C0.395932 57.08 2.6312 65.4535 6.88858 72.8345L0 98.0001L25.7413 91.2463C32.8621 95.126 40.8419 97.1588 48.951 97.159H48.9714C75.7336 97.159 97.5222 75.3744 97.5304 48.5959C97.5501 42.2148 96.3044 35.893 93.8653 29.9964C91.4262 24.0998 87.8421 18.7454 83.3204 14.2428Z" fill="#003061"/>
</g>
<defs>
<clipPath id="clip0_128_394">
<rect width="98" height="98" fill="white"/>
</clipPath>
</defs>
</svg>
